<svg width="47" height="47" viewBox="0 0 47 47" fill="none" xmlns="http://www.w3.org/2000/svg">
<g clip-path="url(#clip0_53_5)">
<path d="M9.8547 22.3211C9.85474 22.0616 9.90606 21.8046 10.0057 21.565C10.1053 21.3254 10.2513 21.1078 10.4352 20.9247C10.6192 20.7416 10.8375 20.5967 11.0776 20.4982C11.3177 20.3998 11.5749 20.3497 11.8344 20.3509L15.1168 20.3616C15.6401 20.3616 16.142 20.5695 16.512 20.9396C16.8821 21.3096 17.09 21.8115 17.09 22.3349V34.7459C17.4595 34.6363 17.9341 34.5193 18.4534 34.3971C18.8141 34.3123 19.1356 34.1082 19.3657 33.8178C19.5958 33.5273 19.721 33.1677 19.7209 32.7971V17.4018C19.7209 16.8784 19.9287 16.3765 20.2988 16.0063C20.6688 15.6362 21.1707 15.4283 21.6941 15.4282H24.983C25.5063 15.4283 26.0082 15.6362 26.3783 16.0063C26.7483 16.3765 26.9562 16.8784 26.9562 17.4018V31.6902C26.9562 31.6902 27.7797 31.357 28.5817 31.0184C28.8797 30.8924 29.1339 30.6815 29.3128 30.4119C29.4916 30.1423 29.5871 29.8261 29.5874 29.5026V12.4687C29.5874 11.9454 29.7953 11.4436 30.1652 11.0735C30.5352 10.7035 31.037 10.4956 31.5603 10.4955H34.8491C35.3725 10.4955 35.8744 10.7033 36.2444 11.0734C36.6145 11.4434 36.8224 11.9453 36.8224 12.4687V26.4957C39.6737 24.4292 42.5633 21.944 44.8563 18.9555C45.1891 18.5217 45.4092 18.0123 45.4971 17.4728C45.585 16.9333 45.538 16.3803 45.3603 15.8634C44.2988 12.8095 42.6118 10.0107 40.4066 7.64626C38.2014 5.28185 35.527 3.40378 32.5544 2.13229C29.5817 0.860795 26.3764 0.223864 23.1435 0.262258C19.9106 0.300652 16.7213 1.01353 13.7798 2.35525C10.8382 3.69699 8.20909 5.63802 6.06073 8.05416C3.91237 10.4703 2.29206 13.3083 1.30349 16.3866C0.314924 19.4649 -0.0201346 22.7156 0.319756 25.9309C0.659645 29.1461 1.667 32.2549 3.27736 35.0585C3.55789 35.5421 3.9706 35.9356 4.46701 36.1928C4.96341 36.45 5.5229 36.5602 6.0798 36.5105C6.70188 36.4559 7.47642 36.3783 8.39732 36.2702C8.79819 36.2247 9.16831 36.0333 9.43713 35.7324C9.70598 35.4316 9.85474 35.0424 9.85508 34.6389L9.8547 22.3211Z" fill="#27A55C"/>
<path d="M9.7829 42.2274C13.2495 44.7493 17.3464 46.2632 21.6201 46.6014C25.8938 46.9392 30.1777 46.0886 33.9978 44.1429C37.818 42.1972 41.0253 39.2327 43.2652 35.5773C45.5048 31.9219 46.6897 27.7181 46.6886 23.4311C46.6886 22.8961 46.6637 22.3669 46.6282 21.8407C38.138 34.5032 22.4618 40.423 9.78362 42.2254" fill="#F6EF00"/>
</g>
<defs>
<clipPath id="clip0_53_5">
<rect width="47" height="47" fill="white"/>
</clipPath>
</defs>
</svg>
