<svg width="41" height="47" viewBox="0 0 41 47" fill="none" xmlns="http://www.w3.org/2000/svg">
<g clip-path="url(#clip0_53_463)">
<path d="M15.9971 10.695C15.4881 10.6223 15.4639 10.598 15.7062 10.5738C16.1668 10.501 17.2332 10.598 17.9846 10.7678C19.7297 11.1801 21.3052 12.2471 22.9776 14.1145L23.4139 14.6238L24.0441 14.5268C26.7345 14.0903 29.4976 14.4298 31.8002 15.4969C32.4304 15.7879 33.4242 16.3699 33.5454 16.5154C33.5938 16.564 33.6666 16.8792 33.715 17.1945C33.8847 18.3343 33.812 19.1831 33.4484 19.8379C33.2545 20.2017 33.2545 20.2987 33.3757 20.614C33.4726 20.8565 33.7635 21.0263 34.0301 21.0263C34.6118 21.0263 35.2178 20.1047 35.5086 18.8194L35.6298 18.3101L35.848 18.5526C37.0841 19.935 38.0536 21.8508 38.199 23.2089L38.2475 23.5727L38.0294 23.2575C37.6658 22.6997 37.3265 22.3359 36.866 22.0206C36.0419 21.4628 35.1693 21.2931 32.8667 21.1718C30.7822 21.0505 29.5946 20.8808 28.4312 20.4927C26.4436 19.8379 25.4257 18.9891 23.0746 15.8607C22.0323 14.4783 21.3779 13.7265 20.7235 13.0959C19.2935 11.7136 17.8634 10.986 15.9971 10.695Z" fill="#27A55C"/>
<path d="M34.0543 13.775C34.1028 12.8535 34.224 12.2472 34.4906 11.6894C34.5875 11.4711 34.6845 11.2771 34.7087 11.2771C34.733 11.2771 34.6845 11.4469 34.6118 11.6409C34.4179 12.1744 34.3936 12.9262 34.5148 13.775C34.6845 14.8664 34.7572 15.0119 35.9206 16.2002C36.4538 16.758 37.084 17.4613 37.3264 17.7523L37.7385 18.2859L37.3264 17.8978C36.8174 17.4128 35.654 16.4912 35.3874 16.37C35.2177 16.273 35.1935 16.273 35.0723 16.3942C34.9753 16.4912 34.9511 16.6367 34.9511 17.3401C34.9269 18.4314 34.7814 19.1104 34.4179 19.8137C34.224 20.1775 34.1997 20.1048 34.3694 19.6925C34.4906 19.3772 34.5148 19.2317 34.5148 18.1889C34.5148 16.079 34.2724 15.5697 32.7939 14.7209C32.4304 14.5026 31.8002 14.1873 31.4366 14.0176C31.0488 13.8478 30.7579 13.7023 30.7822 13.7023C30.8306 13.6538 32.2607 14.0661 32.8182 14.3086C33.6665 14.6481 33.8119 14.6724 33.9089 14.6481C33.9816 14.5753 34.0301 14.3813 34.0543 13.775Z" fill="#27A55C"/>
<path d="M16.9908 17.3886C15.9728 15.982 15.3183 13.7993 15.4638 12.1744L15.5123 11.6652L15.7546 11.7137C16.1909 11.7864 16.9423 12.0774 17.3059 12.2957C18.2754 12.8778 18.7117 13.6781 19.1237 15.6667C19.2449 16.2488 19.4146 16.9278 19.4873 17.1461C19.6085 17.5098 20.069 18.3587 20.4568 18.8922C20.7234 19.2802 20.5537 19.4742 19.9478 19.4257C19.0268 19.3287 17.7906 18.4799 16.9908 17.3886Z" fill="#27A55C"/>
<path d="M32.8182 27.9381C28.019 25.998 26.3224 24.3246 26.3224 21.4872C26.3224 21.0749 26.3466 20.7354 26.3466 20.7354C26.3709 20.7354 26.5405 20.8809 26.7587 21.0506C27.7282 21.8267 28.8189 22.1662 31.8486 22.6027C33.618 22.8695 34.636 23.0635 35.557 23.3788C38.4898 24.3489 40.3077 26.3375 40.744 29.0295C40.8652 29.8055 40.7924 31.2849 40.5985 32.0609C40.4289 32.6672 39.9441 33.7828 39.8229 33.8071C39.7987 33.8071 39.7502 33.6858 39.7502 33.4918C39.7017 32.4732 39.1927 31.5032 38.3444 30.7513C37.3264 29.8783 36.0176 29.2235 32.8182 27.9381Z" fill="#27A55C"/>
<path d="M29.4248 28.7384C29.3763 28.3747 29.2551 27.9139 29.1824 27.7199L29.0612 27.3561L29.2794 27.6228C29.5945 27.9866 29.8369 28.4232 30.055 29.0295C30.2247 29.4902 30.2247 29.6357 30.2247 30.3876C30.2247 31.1151 30.2004 31.2849 30.055 31.6972C29.8126 32.3519 29.5218 32.8127 29.037 33.322C28.1644 34.2193 27.0253 34.7044 25.4013 34.9226C25.1105 34.9469 24.2864 35.0197 23.5592 35.0682C21.7414 35.1652 20.5295 35.3592 19.4388 35.7472C19.2934 35.7957 19.1479 35.8442 19.1237 35.82C19.0752 35.7715 19.8266 35.3349 20.4325 35.0439C21.2809 34.6316 22.1534 34.4134 24.0682 34.0738C25.0135 33.9283 25.983 33.7343 26.2254 33.6373C28.625 32.8855 29.8126 31.0181 29.4248 28.7384Z" fill="#27A55C"/>
<path d="M31.6305 32.643C31.0004 31.2606 30.8549 29.951 31.1943 28.7142C31.2427 28.5929 31.2912 28.4717 31.3397 28.4717C31.3882 28.4717 31.5336 28.5444 31.679 28.6414C31.9699 28.8355 32.5758 29.175 34.1271 30.0238C36.0903 31.0909 37.2053 31.9154 37.9809 32.8613C38.6595 33.6858 39.0716 34.6316 39.2655 35.7957C39.3867 36.4505 39.314 38.0269 39.1443 38.6817C38.6111 40.7431 37.3992 42.3922 35.6298 43.338C35.3632 43.4835 35.145 43.5806 35.1208 43.5806C35.0966 43.5806 35.1935 43.338 35.339 43.047C35.9207 41.8102 35.9934 40.6218 35.5571 39.288C35.2905 38.4634 34.733 37.4691 33.6181 35.7957C32.285 33.8556 31.9699 33.3463 31.6305 32.643Z" fill="#27A55C"/>
<path d="M13.5732 40.0639C15.3668 38.5603 17.5725 37.4933 19.6085 37.1537C20.481 37.0082 21.9353 37.0567 22.7351 37.275C24.0198 37.6145 25.1832 38.3421 25.7891 39.2394C26.3708 40.1125 26.6375 40.8643 26.9041 42.5376C27.001 43.1924 27.1222 43.8715 27.1465 44.017C27.3404 44.8901 27.7282 45.5691 28.2129 45.9329C28.9643 46.4907 30.2731 46.5149 31.5578 46.0299C31.7759 45.9571 31.9698 45.8844 31.9698 45.9086C32.0183 45.9571 31.3639 46.3937 30.9276 46.6119C30.3216 46.9272 29.8369 47.0242 29.1824 47.0242C28.019 47.0242 27.0253 46.4179 26.2254 45.2053C26.0557 44.9628 25.7164 44.2595 25.4256 43.6047C24.5772 41.6403 24.1409 41.0583 23.1472 40.4035C22.2746 39.8457 21.1597 39.7244 20.3114 40.1367C19.1964 40.6702 18.9056 42.1011 19.6812 42.9742C19.9963 43.3379 20.578 43.629 21.0627 43.7017C21.9595 43.823 22.7351 43.1197 22.7351 42.2224C22.7351 41.6403 22.517 41.3008 21.9353 41.034C21.1597 40.6945 20.3114 41.0825 20.3356 41.8343C20.3356 42.1496 20.481 42.3436 20.7961 42.4891C20.99 42.5861 20.99 42.5861 20.8446 42.5619C20.1417 42.4164 19.972 41.5433 20.5295 40.9855C21.2082 40.3065 22.6382 40.5975 23.123 41.5433C23.3169 41.9313 23.3411 42.7074 23.1714 43.1924C22.7594 44.2595 21.596 44.8173 20.4083 44.502C19.6085 44.2838 19.2691 44.0655 18.2996 43.0712C16.6029 41.325 15.9485 40.9855 13.5247 40.6217L13.0642 40.549L13.5732 40.0639Z" fill="#27A55C"/>
<path fill-rule="evenodd" clip-rule="evenodd" d="M0.824069 1.04283C6.47151 7.90609 15.1729 18.5769 15.6092 19.1589C15.9728 19.644 15.8274 20.1047 15.2214 20.4443C14.8821 20.6383 14.1792 20.8323 13.8398 20.8323C13.452 20.8323 12.9915 20.6383 12.6764 20.323C12.4583 20.1047 11.513 18.7224 9.38006 15.3999C7.75612 12.8535 6.37456 10.7435 6.35032 10.7193C6.25337 10.6708 6.25337 10.6708 9.2104 15.9577C11.0767 19.2802 11.6827 20.4685 11.6827 20.614C11.6827 20.9293 11.5857 21.0991 11.1979 21.5356C10.5435 22.2632 10.2526 23.0877 10.0345 24.8096C9.79211 26.7255 9.13768 28.0836 7.27136 30.3875C6.18065 31.7456 6.01099 31.9881 5.74437 32.5459C5.40504 33.225 5.30809 33.613 5.25961 34.4861C5.21114 35.4076 5.30809 35.9897 5.57471 36.8627C5.81709 37.6388 6.0837 38.1481 6.73813 39.1424C7.2956 40.0155 7.63493 40.6703 7.63493 40.9128C7.63493 41.1068 7.68341 41.1068 8.55597 40.9128C10.6404 40.4278 12.3613 39.6032 13.3066 38.5846C13.8883 37.9541 14.0337 37.6145 14.0337 36.7415C14.0337 36.1837 14.0095 36.0624 13.8641 35.7229C13.6217 35.1894 13.1612 34.7528 12.1674 34.0738C10.8586 33.1765 10.3011 32.4489 10.1557 31.4788C10.0345 30.6543 10.1799 30.0965 10.9071 28.5686C11.6584 26.9923 11.8523 26.3375 11.9735 24.7368C12.0462 23.7183 12.1674 23.306 12.4583 22.9907C12.7734 22.6512 13.04 22.5299 13.7914 22.4329C15.0275 22.2632 15.8274 21.9479 16.4575 21.3416C17.015 20.8323 17.2574 20.323 17.2816 19.5712L17.3059 19.0134L16.9908 18.6739C15.8516 17.3643 0.0726933 0 -2.05177e-05 0C-0.0242585 0 0.363549 0.460784 0.824069 1.04283ZM8.26512 35.5289C8.53173 35.0681 8.38631 34.4861 7.95002 34.195C7.53798 33.9283 6.90779 34.0495 6.90779 34.4133C6.90779 34.5103 6.95627 34.6073 7.1017 34.6558C7.31984 34.7771 7.34408 34.8983 7.17441 35.1651C7.00474 35.4319 7.00474 35.6744 7.22289 35.8442C7.56222 36.1109 8.02274 35.9654 8.26512 35.5289Z" fill="#27A55C"/>
<path fill-rule="evenodd" clip-rule="evenodd" d="M18.0815 22.7724C17.4998 22.9422 16.9423 23.5727 16.7727 24.2033C16.6757 24.5913 16.7242 25.2946 16.8939 25.5129C17.1605 25.8524 17.4029 25.9494 18.0815 25.9494C19.4146 25.9494 20.5538 25.3674 20.675 24.6641C20.7962 24.082 20.2872 23.2817 19.5843 22.9179C19.2207 22.7239 18.4693 22.6512 18.0815 22.7724ZM19.6328 23.985C19.8267 23.694 19.7539 23.3787 19.3904 23.1604C18.736 22.7482 17.7422 23.0877 17.7422 23.7182C17.7422 24.0335 18.2512 24.373 18.736 24.373C19.051 24.373 19.4873 24.179 19.6328 23.985Z" fill="#27A55C"/>
</g>
<defs>
<clipPath id="clip0_53_463">
<rect width="40.7925" height="47" fill="white"/>
</clipPath>
</defs>
</svg>
